<?xml version="1.0" encoding="UTF-8"?>
<svg xmlns="http://www.w3.org/2000/svg" xmlns:xlink="http://www.w3.org/1999/xlink" width="149pt" height="31pt" viewBox="0 0 149 31" version="1.1">
<g id="surface1">
<path style=" stroke:none;fill-rule:nonzero;fill:rgb(21.176471%,21.176471%,21.176471%);fill-opacity:1;" d="M 15.730469 22.914062 L 15.40625 23.035156 C 14.199219 23.476562 13.152344 23.671875 12.007812 23.671875 C 9.527344 23.671875 8.605469 22.691406 8.605469 20.050781 L 8.605469 13.539062 L 15.875 13.539062 L 15.875 10.378906 L 8.601562 10.378906 L 8.601562 5.472656 L 5.378906 5.472656 L 4.964844 10.386719 L 0.574219 10.550781 L 0.574219 13.535156 L 4.820312 13.535156 L 4.820312 20.039062 C 4.820312 24.625 6.933594 26.851562 11.28125 26.851562 C 13.351562 26.851562 14.960938 26.390625 16.261719 25.9375 L 16.546875 25.839844 Z M 15.730469 22.914062 "/>
<path style=" stroke:none;fill-rule:nonzero;fill:rgb(21.176471%,21.176471%,21.176471%);fill-opacity:1;" d="M 27.609375 9.996094 C 24.546875 9.996094 21.824219 11.398438 20.472656 12.234375 L 20.210938 12.398438 L 21.722656 15.050781 L 22 14.886719 C 23.96875 13.734375 25.574219 13.191406 27.046875 13.191406 C 29.167969 13.191406 30.347656 14.140625 30.570312 16.019531 C 22.847656 16.640625 19.6875 18.40625 19.6875 22.074219 C 19.6875 24.890625 21.960938 26.851562 25.214844 26.851562 C 27.5625 26.851562 29.707031 25.589844 30.953125 24.671875 L 31.179688 26.476562 L 34.378906 26.476562 L 34.378906 16.847656 C 34.382812 12.492188 31.910156 9.996094 27.609375 9.996094 Z M 30.601562 18.683594 L 30.601562 21.796875 C 28.976562 23.101562 27.542969 23.710938 26.117188 23.710938 C 25.296875 23.710938 23.402344 23.527344 23.402344 21.835938 C 23.398438 20.558594 24.265625 19.183594 30.601562 18.683594 Z M 30.601562 18.683594 "/>
<path style=" stroke:none;fill-rule:nonzero;fill:rgb(21.176471%,21.176471%,21.176471%);fill-opacity:1;" d="M 49.378906 22.859375 L 49.050781 23.003906 C 48.09375 23.417969 47.234375 23.621094 46.425781 23.621094 C 44.710938 23.621094 43.84375 22.71875 43.84375 20.933594 L 43.84375 3.40625 L 34.765625 3.40625 L 34.765625 6.566406 L 40.0625 6.566406 L 40.0625 20.746094 C 40.0625 24.6875 42.058594 26.855469 45.691406 26.855469 C 47.429688 26.855469 48.480469 26.558594 50.058594 25.933594 L 50.339844 25.824219 Z M 49.378906 22.859375 "/>
<path style=" stroke:none;fill-rule:nonzero;fill:rgb(21.176471%,21.176471%,21.176471%);fill-opacity:1;" d="M 59.921875 9.996094 C 55.9375 9.996094 51.695312 12.941406 51.695312 18.402344 C 51.695312 23.457031 55.1875 26.855469 60.382812 26.855469 C 63.132812 26.855469 65.253906 25.832031 66.558594 24.972656 L 66.804688 24.808594 L 65.398438 22.261719 L 65.113281 22.433594 C 63.609375 23.34375 62.269531 23.75 60.777344 23.75 C 57.808594 23.75 55.945312 22.273438 55.507812 19.648438 L 67.136719 19.648438 L 67.179688 19.378906 C 67.246094 18.949219 67.328125 18.292969 67.328125 17.617188 C 67.332031 12.984375 64.421875 9.996094 59.921875 9.996094 Z M 60.007812 13.082031 C 62.203125 13.082031 63.542969 14.355469 63.84375 16.695312 L 55.613281 16.695312 C 56.160156 14.480469 57.785156 13.082031 60.007812 13.082031 Z M 60.007812 13.082031 "/>
<path style=" stroke:none;fill-rule:nonzero;fill:rgb(21.176471%,21.176471%,21.176471%);fill-opacity:1;" d="M 79.671875 9.996094 C 77.210938 9.996094 75.433594 11.300781 74.132812 12.574219 L 73.910156 10.378906 L 70.734375 10.378906 L 70.734375 26.480469 L 74.515625 26.480469 L 74.515625 15.625 C 75.992188 14.121094 77.042969 13.359375 78.585938 13.359375 C 80.625 13.359375 81.453125 14.40625 81.453125 16.980469 L 81.453125 26.480469 L 85.238281 26.480469 L 85.238281 16.566406 C 85.234375 12.207031 83.367188 9.996094 79.671875 9.996094 Z M 79.671875 9.996094 "/>
<path style=" stroke:none;fill-rule:nonzero;fill:rgb(21.176471%,21.176471%,21.176471%);fill-opacity:1;" d="M 102.648438 22.914062 L 102.324219 23.035156 C 101.121094 23.476562 100.074219 23.671875 98.925781 23.671875 C 96.445312 23.671875 95.523438 22.691406 95.523438 20.050781 L 95.523438 13.539062 L 102.792969 13.539062 L 102.792969 10.378906 L 95.523438 10.378906 L 95.523438 5.472656 L 92.300781 5.472656 L 91.890625 10.386719 L 87.496094 10.550781 L 87.496094 13.535156 L 91.742188 13.535156 L 91.742188 20.039062 C 91.742188 24.625 93.859375 26.851562 98.203125 26.851562 C 100.273438 26.851562 101.882812 26.390625 103.179688 25.9375 L 103.46875 25.835938 Z M 102.648438 22.914062 "/>
<path style=" stroke:none;fill-rule:nonzero;fill:rgb(20%,20%,53.333333%);fill-opacity:1;" d="M 117.003906 27.390625 L 111.789062 27.390625 L 111.789062 3.707031 L 116.941406 3.707031 L 116.941406 0.511719 L 108.542969 0.511719 L 108.542969 30.601562 L 117.003906 30.601562 Z M 117.003906 27.390625 "/>
<path style=" stroke:none;fill-rule:nonzero;fill:rgb(20%,20%,53.333333%);fill-opacity:1;" d="M 148.386719 0.511719 L 139.984375 0.511719 L 139.984375 3.707031 L 145.136719 3.707031 L 145.136719 8.316406 L 148.386719 8.316406 Z M 148.386719 0.511719 "/>
<path style=" stroke:none;fill-rule:nonzero;fill:rgb(20%,20%,53.333333%);fill-opacity:1;" d="M 148.386719 10.5625 L 145.136719 10.5625 L 145.136719 27.390625 L 139.925781 27.390625 L 139.925781 30.601562 L 148.386719 30.601562 Z M 148.386719 10.5625 "/>
<path style=" stroke:none;fill-rule:nonzero;fill:rgb(20%,20%,53.333333%);fill-opacity:1;" d="M 129.789062 24.859375 L 128.929688 22.207031 L 128.605469 22.351562 C 127.78125 22.710938 127.042969 22.886719 126.339844 22.886719 C 124.882812 22.886719 124.144531 22.117188 124.144531 20.597656 L 124.144531 5.339844 L 116.183594 5.339844 L 116.183594 8.164062 L 120.777344 8.164062 L 120.777344 20.429688 C 120.777344 23.875 122.527344 25.773438 125.703125 25.773438 C 127.222656 25.773438 128.140625 25.515625 129.503906 24.96875 Z M 129.789062 24.859375 "/>
<path style=" stroke:none;fill-rule:nonzero;fill:rgb(20%,20%,53.333333%);fill-opacity:1;" d="M 138.171875 10.878906 L 135.449219 18.0625 L 134.949219 19.484375 C 134.734375 20.085938 134.515625 20.707031 134.308594 21.3125 C 133.871094 20.191406 133.421875 19.050781 132.996094 18.042969 L 129.929688 10.878906 L 126.480469 10.878906 L 132.734375 24.550781 L 132.433594 25.332031 C 131.796875 26.917969 130.773438 27.6875 129.296875 27.6875 C 128.972656 27.6875 128.59375 27.628906 128.230469 27.515625 L 127.910156 27.414062 L 127.222656 30.167969 L 127.503906 30.261719 C 128.0625 30.449219 128.765625 30.554688 129.4375 30.554688 C 133.238281 30.554688 134.753906 27.710938 135.558594 25.578125 L 141.484375 10.875 L 138.171875 10.875 Z M 138.171875 10.878906 "/>
</g>
</svg>